<svg width="36" height="36" viewBox="0 0 36 36" fill="none" xmlns="http://www.w3.org/2000/svg">
<g clip-path="url(#clip0_2_1192)">
<path d="M28.845 22.89L25.035 22.455C24.12 22.35 23.22 22.665 22.575 23.31L19.815 26.07C15.57 23.91 12.09 20.445 9.93 16.185L12.705 13.41C13.35 12.765 13.665 11.865 13.56 10.95L13.125 7.17001C12.945 5.65501 11.67 4.51501 10.14 4.51501H7.545C5.85 4.51501 4.44 5.92501 4.545 7.62001C5.34 20.43 15.585 30.66 28.38 31.455C30.075 31.56 31.485 30.15 31.485 28.455V25.86C31.5 24.345 30.36 23.07 28.845 22.89V22.89Z" fill="#236DDB"/>
</g>
<defs>
<clipPath id="clip0_2_1192">
<rect width="36" height="36" fill="white"/>
</clipPath>
</defs>
</svg>
