<svg width="36" height="36" viewBox="0 0 36 36" fill="none" xmlns="http://www.w3.org/2000/svg">
<g clip-path="url(#clip0_2_1198)">
<path d="M18 3C12.195 3 7.5 7.695 7.5 13.5C7.5 19.755 14.13 28.38 16.86 31.665C17.46 32.385 18.555 32.385 19.155 31.665C21.87 28.38 28.5 19.755 28.5 13.5C28.5 7.695 23.805 3 18 3ZM18 17.25C15.93 17.25 14.25 15.57 14.25 13.5C14.25 11.43 15.93 9.75 18 9.75C20.07 9.75 21.75 11.43 21.75 13.5C21.75 15.57 20.07 17.25 18 17.25Z" fill="#236DDB"/>
</g>
<defs>
<clipPath id="clip0_2_1198">
<rect width="36" height="36" fill="white"/>
</clipPath>
</defs>
</svg>
